<svg width="246" height="96" viewBox="0 0 246 96" fill="none" xmlns="http://www.w3.org/2000/svg">
<path d="M216.8 12.6222C208.6 5.92217 196.3 0.722168 184.9 0.722168C172.9 0.722168 161.9 5.22217 153.5 12.6222C153.5 12.5222 153.5 12.5222 153.5 12.5222C145.7 18.8222 133.2 19.6222 122.6 19.6222C111.9 19.5222 99.5 18.8222 91.7 12.5222C91.7 12.5222 91.7 12.5222 91.7 12.6222C83.4 5.22217 72.4 0.722168 60.3 0.722168C49 0.722168 36.6 5.92217 28.5 12.6222C12.1 16.8222 0 11.4222 0 25.3222C0 37.5222 11.9 31.4222 13.2 47.9222C13.2 73.9222 34.3 95.0222 60.3 95.0222C86.3 95.0222 107.4 73.9222 107.4 47.9222C107.4 44.4222 107 41.1222 106.3 37.8222C110.6 29.2222 118.9 28.8222 122.9 28.8222C126.8 28.8222 134.5 29.2222 138.8 37.8222C138.1 41.1222 137.7 44.4222 137.7 47.9222C137.7 73.9222 158.8 95.0222 184.8 95.0222C210.8 95.0222 231.9 73.9222 231.9 47.9222C233.3 31.4222 245.1 37.5222 245.1 25.3222C245.3 11.4222 233.3 16.8222 216.8 12.6222ZM60.4 81.4222C41.9 81.4222 26.9 66.4222 26.9 47.9222C26.9 29.4222 41.9 14.4222 60.4 14.4222C78.9 14.4222 93.9 29.4222 93.9 47.9222C93.9 66.4222 78.9 81.4222 60.4 81.4222ZM184.5 81.4222C166 81.4222 151 66.4222 151 47.9222C151 29.4222 166 14.4222 184.5 14.4222C203 14.4222 218 29.4222 218 47.9222C218 66.4222 203 81.4222 184.5 81.4222Z" fill="#00872E"/>
</svg>
